<svg version="1.1" id="Layer_1" xmlns="http://www.w3.org/2000/svg" xmlns:xlink="http://www.w3.org/1999/xlink" x="0px" y="0px"  width="35px" height="35px" viewBox="0 0 35 35" enable-background="new 0 0 35 35" xml:space="preserve"><g id="Facebook_2_"> <g>  <path fill="#3B5998" d="M26,8.5H9c-0.5,0-1,0.5-1,1v17c0,0.6,0.5,1,1,1h9.1v-7.4h-2.5v-2.9h2.5v-2.1c0-2.5,1.5-3.8,3.7-3.8   c1,0,1.9,0.1,2.2,0.1V14h-1.5c-1.2,0-1.4,0.6-1.4,1.4v1.8h2.8l-0.4,2.9H21v7.4h5c0.6,0,1-0.5,1-1v-17C27,9,26.5,8.5,26,8.5z"/> </g></g><g> <rect x="5" y="17.5" fill="#FFFFFF" width="12.499" height="12.5"/> <rect x="5" y="5" fill="#FFFFFF" width="25" height="24.999"/> <rect x="5" y="5.001" width="12.5" height="12.5"/> <rect x="17.499" y="17.5" width="12.5" height="12.5"/> <path fill="#FFFFFF" d="M8.873,13.451c0.242,0.038,0.436,0.025,0.8,0c0.569-0.024,1.138-0.198,1.563-0.497  c0.521-0.348,0.861-0.882,0.994-1.491l-0.025-0.012c-0.363,0.372-0.872,0.583-1.597,0.583c-1.333,0-2.449-0.944-2.449-2.522  c0-1.58,1.236-2.908,2.968-2.908c2.024,0,2.981,1.591,2.981,3.48c0,1.69-0.522,2.908-1.37,3.714  c-0.751,0.709-1.792,1.084-3.029,1.132c-0.3,0.024-0.618,0.011-0.835,0V13.451z M11.066,7.983c-0.618,0-1.077,0.572-1.077,1.417  c0,0.696,0.374,1.293,1.115,1.293c0.519,0,0.86-0.236,1.041-0.522c0.06-0.124,0.086-0.25,0.086-0.485  c0.01-0.857-0.316-1.703-1.152-1.703H11.066z"/> <path d="M20.825,14.82v-1.144l1.004-0.932c1.733-1.59,2.57-2.498,2.58-3.443c0-0.659-0.375-1.179-1.283-1.179  c-0.679,0-1.271,0.348-1.684,0.657l-0.522-1.342c0.581-0.46,1.514-0.832,2.569-0.832c1.793,0,2.761,1.069,2.761,2.535  c0,1.354-0.944,2.436-2.096,3.479l-0.725,0.622v0.025h2.979v1.555H20.825z"/> <path d="M8.873,26.284c0.242,0.038,0.436,0.025,0.8,0c0.569-0.024,1.138-0.199,1.563-0.497c0.521-0.348,0.861-0.882,0.994-1.49  l-0.025-0.012c-0.363,0.372-0.872,0.583-1.597,0.583c-1.333,0-2.449-0.944-2.449-2.522c0-1.579,1.236-2.908,2.968-2.908  c2.024,0,2.981,1.591,2.981,3.48c0,1.69-0.522,2.908-1.37,3.714c-0.751,0.709-1.792,1.083-3.029,1.132  c-0.3,0.023-0.618,0.011-0.835,0V26.284z M11.066,20.816c-0.618,0-1.077,0.571-1.077,1.418c0,0.695,0.374,1.292,1.115,1.292  c0.519,0,0.86-0.235,1.041-0.521c0.06-0.124,0.086-0.249,0.086-0.486c0.01-0.857-0.316-1.702-1.152-1.702H11.066z"/> <path fill="#FFFFFF" d="M20.825,27.651v-1.144l1.004-0.931c1.733-1.59,2.57-2.499,2.58-3.443c0-0.659-0.375-1.18-1.283-1.18  c-0.679,0-1.271,0.346-1.684,0.658l-0.522-1.344c0.581-0.458,1.514-0.831,2.569-0.831c1.793,0,2.761,1.069,2.761,2.535  c0,1.355-0.944,2.436-2.096,3.481l-0.725,0.621v0.024h2.979v1.554H20.825z"/></g></svg>
