<svg version="1.1" id="Layer_1" xmlns="http://www.w3.org/2000/svg" xmlns:xlink="http://www.w3.org/1999/xlink" x="0px" y="0px"  width="57px" height="57px" viewBox="0 0 57 57" enable-background="new 0 0 57 57" xml:space="preserve"><title>Group</title><desc>Created with Sketch.</desc><g> <path d="M28.5,0C12.76,0,0,12.76,0,28.5C0,44.24,12.76,57,28.5,57S57,44.24,57,28.5C57,12.76,44.24,0,28.5,0z  M20.062,42.275l-6.27-12.16c-0.57-0.95-0.19-2.09,0.76-2.47c0.95-0.57,2.09-0.19,2.47,0.76l4.75,9.31l22.419-22.42 c0.381-0.38,0.951-0.38,1.33,0c0.19,0.38,0.19,1.14,0.19,1.33L20.062,42.275z"/></g><style type="text/css">circle, ellipse, line, path, polygon, polyline, rect, text { fill: #009a42; }</style></svg>
