<?xml version="1.0" encoding="utf-8"?>
<!-- Generator: Adobe Illustrator 22.0.1, SVG Export Plug-In . SVG Version: 6.00 Build 0)  -->
<svg version="1.1" id="Layer_1" xmlns="http://www.w3.org/2000/svg" xmlns:xlink="http://www.w3.org/1999/xlink" x="0px" y="0px"
	 viewBox="0 0 35 35" style="enable-background:new 0 0 35 35;" xml:space="preserve">
<style type="text/css">
	.st0{fill:#003082;}
	.st1{fill:none;stroke:#003082;stroke-miterlimit:10;}
</style>
<g>
	<g>
		<g>
			<path class="st0" d="M17.5,24.5c-3.9,0-7-3.1-7-7s3.1-7,7-7s7,3.1,7,7S21.4,24.5,17.5,24.5z M17.5,11.4c-3.3,0-6,2.7-6,6.1
				s2.7,6.1,6,6.1s6-2.7,6-6.1S20.8,11.4,17.5,11.4z"/>
		</g>
	</g>
	<circle class="st0" cx="20.2" cy="15.4" r="0.5"/>
	<circle class="st0" cx="15.3" cy="15.4" r="0.5"/>
	<path class="st1" d="M21.2,19.2c-0.8,1.2-2.2,2-3.7,2c-1.5,0-2.9-0.8-3.7-2"/>
</g>
</svg>
