<svg width="35px" height="35px" viewBox="0 0 35 35" version="1.1" xmlns="http://www.w3.org/2000/svg" xmlns:xlink="http://www.w3.org/1999/xlink">        <title>icoon/bushalte_NS_Blue</title>    <desc>Created with Sketch.</desc>    <defs></defs>    <g id="Symbols" stroke="none" stroke-width="1" fill="none" fill-rule="evenodd">        <g id="icoon/bushalte_NS_Blue">            <g id="icon_halte" transform="translate(13.000000, 5.000000)">                <rect id="Rectangle-193" fill="#333385" x="4" y="12" width="1" height="12"></rect>                <path d="M3.00591905,1.5 L5.99408095,1.5 C6.82563839,1.5 7.5,2.17186525 7.5,2.9973917 L7.5,8.0026083 C7.5,8.83354271 6.83335384,9.5 5.99408095,9.5 L3.00591905,9.5 C2.17436161,9.5 1.5,8.82813475 1.5,8.0026083 L1.5,2.9973917 C1.5,2.16645729 2.16664616,1.5 3.00591905,1.5 Z M0.5,8.0026083 C0.5,9.38125142 1.62290538,10.5 3.00591905,10.5 L5.99408095,10.5 C7.38557517,10.5 8.5,9.3858909 8.5,8.0026083 L8.5,2.9973917 C8.5,1.61874858 7.37709462,0.5 5.99408095,0.5 L3.00591905,0.5 C1.61442483,0.5 0.5,1.6141091 0.5,2.9973917 L0.5,8.0026083 Z" id="Rectangle-194" fill="#003082"></path>            </g>        </g>    </g><style type="text/css">circle, ellipse, line, path, polygon, polyline, rect, text { fill: #003082; }</style></svg>
