<svg version="1.1" id="Layer_1" xmlns="http://www.w3.org/2000/svg" xmlns:xlink="http://www.w3.org/1999/xlink" x="0px" y="0px"  width="35px" height="35px" viewBox="0 0 35 35" enable-background="new 0 0 35 35" xml:space="preserve"><g> <circle cx="9.5" cy="13.5" r="0.5"/></g><g> <circle cx="11.5" cy="13.5" r="0.5"/></g><g> <path d="M30.5,28c-0.3,0-0.5-0.2-0.5-0.5v-8c0-0.6-0.1-0.9-0.4-1.1l-5.5-5.5c-0.2-0.2-0.2-0.5,0-0.7s0.5-0.2,0.7,0l5.5,5.5  c0.6,0.6,0.6,1.3,0.6,1.9v8C31,27.8,30.8,28,30.5,28z"/></g><g> <path d="M23,27.5c-0.1,0-0.3,0-0.4-0.1l-3.1-3.1c-0.3-0.3-0.7-0.7-0.8-1.1c-0.1-0.4-1.4-5.8-1.5-6c-0.1-0.5-0.1-1,0.2-1.5  c0.3-0.5,0.8-0.8,1.4-0.9c0.4-0.1,1.8-0.2,2.4,1.5l1.7,4.1c0.1,0.3,0,0.5-0.3,0.7c-0.3,0.1-0.5,0-0.7-0.3l-1.7-4.1  c-0.3-0.8-0.9-0.9-1.3-0.9c-0.3,0.1-0.6,0.2-0.7,0.5c-0.1,0.2-0.2,0.4-0.1,0.7c0.5,1.9,1.4,5.7,1.5,6c0.1,0.2,0.3,0.5,0.5,0.7  l3.1,3.1c0.2,0.2,0.2,0.5,0,0.7C23.3,27.5,23.1,27.5,23,27.5z"/></g><g> <path d="M5,8.5v11C5,20.3,5.7,21,6.5,21h12.7l-0.3-1H6.5C6.2,20,6,19.8,6,19.5v-11C6,8.2,6.2,8,6.5,8h17C23.8,8,24,8.2,24,8.5v11  c0,0.3-0.2,0.5-0.5,0.5h-1.4l0.4,1h1c0.8,0,1.5-0.7,1.5-1.5v-11C25,7.7,24.3,7,23.5,7h-17C5.7,7,5,7.7,5,8.5z"/></g><g> <path d="M13,17H8v-6h5V17z M9,16h3v-4H9V16z"/></g><g> <rect x="15" y="11" width="10" height="1"/></g><g> <rect x="16" y="13" width="6" height="1"/></g><style type="text/css">circle, ellipse, line, path, polygon, polyline, rect, text { fill: #003082; }</style></svg>
