<svg version="1.1" id="OV_tram_metro_bus" xmlns="http://www.w3.org/2000/svg" xmlns:xlink="http://www.w3.org/1999/xlink" x="0px"  y="0px" width="75px" height="75px" viewBox="0 0 75 75" enable-background="new 0 0 75 75" xml:space="preserve"><g>    <rect x="35" y="30" width="11" height="1"/>    <path d="M59.354,38.146L50,28.793V22c0-1.105-0.895-2-2-2H17c-1.105,0-2,0.895-2,2v19c0,1.105,0.895,2,2,2h20.916        c0.549,2.646,1.078,5.173,1.152,5.441c0.236,0.865,0.554,1.422,1.082,1.916c0.096,0.093,4.996,4.996,4.996,4.996        c0.099,0.098,0.227,0.146,0.354,0.146s0.256-0.049,0.354-0.146c0.194-0.195,0.194-0.514,0-0.707        c-4.982-4.984-5.004-5.004-5.013-5.014c-0.401-0.374-0.62-0.77-0.809-1.455c-0.123-0.449-1.804-8.604-2.438-11.689        c-0.217-1.308,0.666-2.306,1.608-2.482c1.401-0.264,2.368,0.286,2.858,1.624l2.467,7.033c0.072,0.206,0.266,0.33,0.471,0.331V43h3        c1.105,0,2-0.895,2-2V30.207l8.646,8.646C58.881,39.088,59,39.811,59,41v14c0,0.275,0.225,0.5,0.5,0.5S60,55.275,60,55V41        C60,39.854,59.922,38.714,59.354,38.146z M49,41c0,0.551-0.449,1-1,1h-2.646l-2.353-6.705c-0.655-1.792-2.108-2.614-3.983-2.27        c-1.405,0.262-2.727,1.724-2.408,3.647c0.044,0.215,0.554,2.696,1.098,5.327H17c-0.551,0-1-0.449-1-1V22c0-0.551,0.449-1,1-1h31        c0.551,0,1,0.449,1,1v5H33v1h16V41z"/>    <path d="M20,25v11h9V25H20z M28,35h-7v-9h7V35z"/></g><style type="text/css">circle, ellipse, line, path, polygon, polyline, rect, text { fill: #003082; }</style></svg>
