<svg version="1.1" id="OV_tram_metro_bus" xmlns="http://www.w3.org/2000/svg" xmlns:xlink="http://www.w3.org/1999/xlink" x="0px"  y="0px" width="75px" height="75px" viewBox="0 0 75 75" enable-background="new 0 0 75 75" xml:space="preserve"><g> <path d="M56.998,34.172v25.831H16.999v1h40.999V33.558C57.68,33.778,57.346,33.982,56.998,34.172z"/> <rect x="22.999" y="30.001" width="2" height="2"/> <rect x="30.999" y="30.001" width="2" height="2"/> <rect x="37.999" y="30.001" width="2" height="2"/> <rect x="30.999" y="37.001" width="2" height="2"/> <rect x="37.999" y="37.001" width="2" height="2"/> <rect x="45.998" y="37.001" width="2" height="2"/> <rect x="22.999" y="44.003" width="2" height="2"/> <rect x="30.999" y="44.003" width="2" height="2"/> <rect x="45.998" y="44.003" width="2" height="2"/> <rect x="22.999" y="51.003" width="2" height="2"/> <rect x="30.999" y="51.003" width="2" height="2"/> <rect x="37.999" y="51.003" width="2" height="2"/> <path d="M26.999,35.001h-6v6.001h6V35.001z M24.999,39.002h-2v-2h2V39.002z"/> <path d="M41.998,42.003h-5.999v6h5.999V42.003z M39.998,46.003h-2v-2h2V46.003z"/> <path d="M22.999,19.001v3h-8v37.001h40.999V34.658c-0.326,0.14-0.659,0.266-1,0.379v22.965H15.999V23.001h7v2c0,0.553,0.447,1,1,1  s1-0.447,1-1v-2h14.478c0.026-0.338,0.062-0.671,0.112-1h-14.59v-3c0-0.553-0.447-1-1-1S22.999,18.448,22.999,19.001z"/>    <path d="M60.326,24.356l0.723-1.792l-1.299-1.441l0.054-1.928l-1.72-0.915l-0.613-1.826l-1.932-0.283l-1.213-1.509l-1.91,0.388        l-1.659-1.005l-1.662,1.005l-1.913-0.388l-1.211,1.509l-1.932,0.283l-0.615,1.827l-1.717,0.915l0.052,1.928l-1.296,1.44        l0.72,1.792l-0.72,1.793l1.296,1.442l-0.052,1.928l1.718,0.914l0.614,1.826l1.932,0.283l1.212,1.51l1.91-0.388l1.661,1.005        l1.662-1.006l1.91,0.389l1.211-1.511l1.932-0.282l0.615-1.826l1.72-0.915l-0.054-1.927l1.297-1.443L60.326,24.356z M44.244,18.976        l0.547-1.622l1.713-0.252l1.076-1.339l1.694,0.343l1.479-0.894l1.477,0.894l1.696-0.343l1.077,1.339l1.712,0.252l0.547,1.621        l1.521,0.812l-0.045,1.707l1.146,1.275l-0.641,1.587l0.642,1.587L58.74,27.22l0.047,1.706l-1.522,0.812l-0.547,1.621l-1.712,0.251        l-1.076,1.341l-1.695-0.346l-1.479,0.896l-1.479-0.894l-1.695,0.343l-1.077-1.34l-1.712-0.252l-0.547-1.621l-1.522-0.811        l0.046-1.707l-1.146-1.275l0.638-1.588l-0.638-1.587l1.146-1.274l-0.046-1.707"/>    <path d="M46.625,21.857c0,0.779,0.634,1.412,1.412,1.412s1.412-0.633,1.412-1.412c0-0.778-0.634-1.412-1.412-1.412        S46.625,21.078,46.625,21.857z M48.979,21.857c0,0.519-0.422,0.941-0.941,0.941c-0.519,0-0.939-0.422-0.939-0.941        s0.422-0.941,0.939-0.941C48.557,20.917,48.979,21.338,48.979,21.857z"/>    <path d="M53.214,25.622c-0.779,0-1.412,0.633-1.412,1.412c0,0.779,0.633,1.412,1.412,1.412c0.778,0,1.411-0.633,1.411-1.412        C54.625,26.254,53.992,25.622,53.214,25.622z M53.214,27.974c-0.519,0-0.941-0.422-0.941-0.941s0.423-0.941,0.941-0.941        c0.518,0,0.94,0.422,0.94,0.941S53.732,27.974,53.214,27.974z"/>    <path d="M54.322,21.083c0.092-0.092,0.092-0.241,0-0.333c-0.093-0.092-0.242-0.092-0.334,0l-7.059,7.059        c-0.092,0.092-0.092,0.241,0,0.333c0.046,0.046,0.105,0.069,0.166,0.069s0.12-0.023,0.166-0.069L54.322,21.083z"/></g><style type="text/css">circle, ellipse, line, path, polygon, polyline, rect, text { fill: #003082; }</style></svg>
