<svg version="1.1" id="Layer_1" xmlns="http://www.w3.org/2000/svg" xmlns:xlink="http://www.w3.org/1999/xlink" x="0px" y="0px"  width="75px" height="75px" viewBox="0 0 75 75" enable-background="new 0 0 75 75" xml:space="preserve">    <title>icon--discount</title>    <g>    <path d="M58.87,37.5l1.614-4.01l-2.899-3.227l0.118-4.313l-3.846-2.05l-1.379-4.087l-4.33-0.634l-2.719-3.38l-4.281,0.86        l-3.719-2.25l-3.73,2.25l-4.28-0.87l-2.71,3.38l-4.328,0.63l-1.38,4.09l-3.843,2.05l0.116,4.31l-2.897,3.23l1.61,4.01l-1.61,4.01        l2.9,3.229l-0.12,4.311l3.85,2.05l1.376,4.08l4.324,0.63l2.716,3.381l4.277-0.867l3.726,2.25l3.721-2.256l4.279,0.871l2.711-3.381        l4.319-0.641l1.372-4.086l3.85-2.051l-0.119-4.313l2.899-3.229l-1.615-4.011L58.87,37.5z M56.688,48.458l-3.649,1.944l-1.312,3.884        l-4.104,0.603l-2.574,3.213l-4.064-0.82l-3.539,2.15l-3.54-2.141l-4.062,0.83l-2.578-3.21l-4.104-0.601l-1.31-3.886l-3.65-1.942        l0.11-4.09l-2.74-3.061l1.53-3.81l-1.52-3.807l2.75-3.06l-0.11-4.094l3.64-1.945l1.31-3.884l4.107-0.603l2.576-3.21l4.064,0.823        l3.54-2.14l3.535,2.14l4.064-0.82l2.58,3.21l4.107,0.6l1.311,3.882l3.649,1.947l-0.12,4.09l2.75,3.06l-1.529,3.802l1.529,3.805        l-2.75,3.061l0.117,4.092L56.688,48.458z"/>    <path d="M31.944,35c1.654,0,3-1.345,3-3s-1.346-3-3-3c-1.654,0-3,1.347-3,3S30.29,35,31.944,35z M31.944,30c1.103,0,2,0.898,2,2        s-0.897,2-2,2s-2-0.896-2-2S30.841,30,31.944,30z M42.943,40c-1.653,0-3,1.348-3,3s1.347,3,3,3c1.654,0,3-1.346,3-3        S44.598,40,42.943,40z M42.943,45c-1.104,0-2-0.896-2-2s0.896-2,2-2s2,0.898,2,2S44.047,45,42.943,45z M45.297,29.647        c-0.195-0.195-0.512-0.195-0.707,0l-15,15c-0.195,0.195-0.195,0.514,0,0.707c0.098,0.1,0.226,0.146,0.354,0.146        s0.256-0.05,0.354-0.146l15-15C45.493,30.159,45.493,29.844,45.297,29.647L45.297,29.647z"/>    </g><style type="text/css">circle, ellipse, line, path, polygon, polyline, rect, text { fill: #003082; }</style></svg>
