<svg width="35px" height="35px" viewBox="0 0 35 35" version="1.1" xmlns="http://www.w3.org/2000/svg" xmlns:xlink="http://www.w3.org/1999/xlink">        <title>icoon/POI_NS_Blue</title>    <desc>Created with Sketch.</desc>    <defs></defs>    <g id="Symbols" stroke="none" stroke-width="1" fill="none" fill-rule="evenodd">        <g id="icoon/POI_NS_Blue" fill="#003082">            <g id="pin" transform="translate(10.000000, 6.000000)">                <path d="M7.17284314,5.05864135 C7.4220098,5.05864135 7.62391748,4.85008861 7.62391748,4.59272152 C7.62391748,4.33564557 7.4220098,4.12680169 7.17284314,4.12680169 C5.41448938,4.12680169 3.98347222,5.60491561 3.98347222,7.42104219 C3.98347222,9.23765401 5.41448938,10.7153797 7.17284314,10.7153797 C8.93147876,10.7153797 10.3621201,9.23765401 10.3621201,7.42104219 C10.3621201,6.69552321 10.1382271,6.00746414 9.71439951,5.43091139 C9.5638848,5.22614346 9.28089461,5.18596624 9.08236928,5.3414346 C8.88421977,5.49719409 8.84532271,5.7891097 8.99574346,5.99416878 C9.2995915,6.40739241 9.46006536,6.90058228 9.46006536,7.42104219 C9.46006536,8.72359916 8.43389706,9.78354008 7.17284314,9.78354008 C5.91178922,9.78354008 4.88562092,8.72359916 4.88562092,7.42104219 C4.88562092,6.11848523 5.91178922,5.05864135 7.17284314,5.05864135 L7.17284314,5.05864135 Z" id="Fill-4"></path>                <path d="M7.17284314,0.0122278481 C3.21755719,0.0122278481 0,3.33567932 0,7.42104219 C0,11.0743544 2.45342729,15.8634008 4.51168301,19.2372194 C4.6441585,19.4547975 4.92273284,19.5200127 5.13337827,19.382789 C5.34402369,19.2459536 5.40753676,18.958211 5.27468546,18.7406329 C1.66073529,12.8158523 0.902148693,9.315 0.902148693,7.42104219 C0.902148693,3.84973418 3.71523284,0.943970464 7.17284314,0.943970464 C10.6307353,0.943970464 13.4439134,3.84934599 13.4439134,7.42104219 C13.4439134,13.2211181 6.88252451,22.0636962 6.81609886,22.1523966 C6.66379902,22.356 6.70006536,22.648692 6.89718137,22.805616 C6.97939134,22.8711224 7.07625817,22.9030506 7.17284314,22.9030506 C7.30747958,22.9030506 7.44108252,22.8408439 7.52996324,22.7217679 C7.80806781,22.3498861 14.3459681,13.5391392 14.3459681,7.42104219 C14.3456863,3.33567932 11.1280351,0.0122278481 7.17284314,0.0122278481 L7.17284314,0.0122278481 Z" id="Fill-1"></path>            </g>        </g>    </g><style type="text/css">circle, ellipse, line, path, polygon, polyline, rect, text { fill: #003082; }</style></svg>
