<svg version="1.1" id="Layer_1" xmlns="http://www.w3.org/2000/svg" xmlns:xlink="http://www.w3.org/1999/xlink" x="0px" y="0px"  width="75px" height="75px" viewBox="0 0 75 75" enable-background="new 0 0 75 75" xml:space="preserve"><g> <path d="M53.81,56.022c-0.176,0-0.347-0.094-0.438-0.259l-9.41-17.121c-0.087-0.158-0.082-0.351,0.013-0.504l5.669-9.184  c0.146-0.234,0.454-0.307,0.688-0.162c0.235,0.145,0.308,0.453,0.163,0.688l-5.517,8.936l9.271,16.865  c0.133,0.242,0.044,0.546-0.197,0.68C53.974,56.003,53.892,56.022,53.81,56.022z"/> <path d="M36.802,55.229c-0.088,0-0.177-0.023-0.258-0.072c-0.236-0.143-0.312-0.45-0.169-0.687l6.576-10.885  c0.144-0.236,0.452-0.311,0.687-0.169c0.236,0.143,0.312,0.45,0.169,0.687L37.23,54.987C37.137,55.143,36.972,55.229,36.802,55.229  z"/> <path d="M54.171,37.07c-2.576,0-4.272-1.754-4.353-1.84c-0.189-0.199-0.181-0.515,0.019-0.705s0.516-0.184,0.707,0.018  c0.019,0.02,1.911,1.947,4.531,1.439c0.266-0.049,0.534,0.125,0.586,0.397c0.052,0.271-0.126,0.533-0.396,0.585  C54.885,37.038,54.52,37.07,54.171,37.07z"/> <path d="M41.791,37.314c-0.091,0-0.181-0.025-0.26-0.072l-2.607-1.588c-0.487-0.279-0.851-0.764-0.983-1.324  c-0.127-0.537-0.032-1.097,0.259-1.534l3.619-5.881c0.276-0.485,0.762-0.849,1.322-0.98c0.534-0.128,1.096-0.033,1.535,0.26  l2.59,1.576c0.235,0.144,0.311,0.45,0.168,0.687l-5.216,8.616c-0.068,0.114-0.18,0.195-0.309,0.228  C41.87,37.31,41.831,37.314,41.791,37.314z M43.611,26.879c-0.079,0-0.16,0.01-0.239,0.029c-0.297,0.069-0.542,0.254-0.692,0.518  l-3.638,5.909c-0.148,0.224-0.191,0.497-0.128,0.765c0.07,0.297,0.254,0.543,0.518,0.693l2.191,1.334l4.698-7.762l-2.182-1.328  C43.98,26.932,43.799,26.879,43.611,26.879z"/> <path d="M53.321,19.978c1.763,0,3.197,1.435,3.197,3.198c0,1.763-1.435,3.197-3.197,3.197c-1.764,0-3.198-1.435-3.198-3.197  C50.123,21.412,51.558,19.978,53.321,19.978 M53.321,18.978c-2.318,0-4.198,1.88-4.198,4.198s1.88,4.197,4.198,4.197  s4.197-1.879,4.197-4.197S55.64,18.978,53.321,18.978L53.321,18.978z"/> <path d="M32.948,52.167c-0.177,0-0.348-0.094-0.439-0.26l-8.277-15.079c-0.086-0.156-0.082-0.348,0.012-0.501l4.989-8.163  c0.144-0.236,0.452-0.311,0.688-0.166c0.236,0.144,0.31,0.451,0.166,0.688l-4.838,7.916l8.138,14.825  c0.133,0.242,0.044,0.546-0.198,0.679C33.112,52.147,33.029,52.167,32.948,52.167z"/> <path d="M17.981,51.487c-0.087,0-0.176-0.022-0.257-0.071c-0.237-0.142-0.313-0.449-0.171-0.686l5.782-9.638  c0.142-0.236,0.449-0.316,0.686-0.172c0.237,0.142,0.313,0.449,0.171,0.686l-5.782,9.638C18.316,51.4,18.151,51.487,17.981,51.487z  "/> <path d="M33.224,35.379c-2.258,0-3.744-1.547-3.815-1.623c-0.188-0.201-0.179-0.516,0.021-0.705c0.2-0.191,0.516-0.182,0.707,0.019  c0.066,0.07,1.666,1.712,3.952,1.216c0.271-0.062,0.536,0.111,0.595,0.382c0.059,0.271-0.113,0.536-0.382,0.595  C33.926,35.344,33.566,35.379,33.224,35.379z"/> <path d="M22.403,35.613c-0.087,0-0.176-0.022-0.257-0.07l-2.268-1.361c-0.458-0.305-0.764-0.721-0.88-1.186  c-0.123-0.491-0.028-1.006,0.268-1.447l3.164-5.198c0.638-0.957,1.74-1.204,2.632-0.61l2.248,1.348  c0.114,0.068,0.196,0.181,0.228,0.311c0.032,0.129,0.011,0.266-0.059,0.379l-4.648,7.598  C22.735,35.529,22.571,35.613,22.403,35.613z M24.035,26.422c-0.06,0-0.119,0.007-0.178,0.021c-0.223,0.056-0.43,0.213-0.584,0.444  l-3.164,5.198c-0.15,0.226-0.195,0.45-0.141,0.668c0.056,0.223,0.213,0.43,0.444,0.584l1.822,1.092l4.126-6.743l-1.835-1.101  C24.36,26.475,24.196,26.422,24.035,26.422z"/> <path d="M32.896,20.403c1.46,0,2.647,1.188,2.647,2.647c0,1.459-1.188,2.646-2.647,2.646c-1.459,0-2.647-1.188-2.647-2.646  C30.249,21.591,31.436,20.403,32.896,20.403 M32.896,19.403c-2.014,0-3.647,1.633-3.647,3.647c0,2.014,1.633,3.646,3.647,3.646  c2.015,0,3.647-1.633,3.647-3.646C36.543,21.036,34.91,19.403,32.896,19.403L32.896,19.403z"/></g><style type="text/css">circle, ellipse, line, path, polygon, polyline, rect, text { fill: #003082; }</style></svg>
