<svg version="1.1" id="Layer_1" xmlns="http://www.w3.org/2000/svg" xmlns:xlink="http://www.w3.org/1999/xlink" x="0px" y="0px"  width="35px" height="35px" viewBox="0 0 35 35" enable-background="new 0 0 35 35" xml:space="preserve"> <path fill="#0077B5" d="M25.6,8H9.4C8.6,8,8,8.6,8,9.4v16.3C8,26.4,8.6,27,9.4,27h16.2c0.8,0,1.4-0.6,1.4-1.4V9.4  C27,8.6,26.4,8,25.6,8z M13.6,24.2h-2.8v-9.1h2.8V24.2z M12.2,13.9c-0.9,0-1.6-0.7-1.6-1.6c0-0.9,0.7-1.6,1.6-1.6  c0.9,0,1.6,0.7,1.6,1.6C13.9,13.2,13.1,13.9,12.2,13.9z M24.2,24.2h-2.8v-4.4c0-1.1,0-2.4-1.5-2.4c-1.5,0-1.7,1.1-1.7,2.3v4.5  h-2.8v-9.1h2.7v1.2h0c0.4-0.7,1.3-1.5,2.7-1.5c2.9,0,3.4,1.9,3.4,4.3V24.2z"/></svg>
