<svg version="1.1" id="Layer_1" xmlns="http://www.w3.org/2000/svg" xmlns:xlink="http://www.w3.org/1999/xlink" x="0px" y="0px"  width="35px" height="35px" viewBox="0 0 35 35" enable-background="new 0 0 35 35" xml:space="preserve"> <path fill-rule="evenodd" clip-rule="evenodd" fill="#EE4023" d="M10,10.3c5-0.3,10-0.3,15,0c1.5,0.1,2.6,1.3,2.8,2.8  c0.3,2.9,0.3,5.8,0,8.8c-0.2,1.5-1.3,2.7-2.8,2.8c-4.1,0.3-9,0.3-15,0c-1.5-0.1-2.6-1.3-2.8-2.8c-0.3-2.9-0.3-5.8,0-8.8  C7.4,11.6,8.5,10.4,10,10.3L10,10.3z M15.3,14.5l5.6,2.9l-5.6,2.9V14.5L15.3,14.5z"/></svg>
