<svg version="1.1" id="Layer_1" xmlns="http://www.w3.org/2000/svg" xmlns:xlink="http://www.w3.org/1999/xlink" x="0px" y="0px"  width="35px" height="35px" viewBox="0 0 35 35" style="enable-background:new 0 0 35 35;" xml:space="preserve"><g> <path d="M19.2,8.8l0.3-1.3c0-0.1,0-0.2-0.1-0.3C19.4,7.1,19.2,7,19.1,7h-3.2c-0.1,0-0.2,0.1-0.3,0.2c-0.1,0.1-0.1,0.2-0.1,0.3  l0.3,1.3c-4.5,0.8-8,4.8-8,9.5c0,5.3,4.3,9.7,9.7,9.7c5.3,0,9.7-4.3,9.7-9.7C27.2,13.6,23.7,9.6,19.2,8.8L19.2,8.8z M18.6,7.8  l-0.2,0.8h-1.9l-0.2-0.8H18.6z M17.5,27.2c-4.9,0-8.9-4-8.9-8.9c0-4.9,4-8.9,8.9-8.9c4.9,0,8.9,4,8.9,8.9  C26.4,23.2,22.4,27.2,17.5,27.2L17.5,27.2z M17.5,27.2"/> <path d="M18.7,18.3c0-0.5-0.3-1-0.8-1.1V11h-0.8v6.1c-0.5,0.2-0.8,0.6-0.8,1.1c0,0.7,0.5,1.2,1.2,1.2c0.1,0,0.1,0,0.2,0l2.5,3.8  l0.7-0.4l-2.5-3.7C18.6,18.9,18.7,18.6,18.7,18.3L18.7,18.3z M17.5,18.7c-0.2,0-0.4-0.2-0.4-0.4c0-0.2,0.2-0.4,0.4-0.4  c0.2,0,0.4,0.2,0.4,0.4C17.9,18.5,17.7,18.7,17.5,18.7L17.5,18.7z M17.5,18.7"/></g><style type="text/css">circle, ellipse, line, path, polygon, polyline, rect, text { fill: #e6e6e9; }</style></svg>
