<svg version="1.1" id="Layer_1" xmlns="http://www.w3.org/2000/svg" x="0px" y="0px"  viewBox="0 0 35 35" style="enable-background:new 0 0 35 35;" xml:space="preserve"><style type="text/css"> .st0{fill-rule:evenodd;clip-rule:evenodd;}</style><title>icoon_stoel</title><desc>Created with Sketch.</desc><g> <path class="st0" d="M6.5,12.5C6.776,12.5,7,12.276,7,12v-1.5C7,10.2,7.2,10,7.5,10h17c0.3,0,0.5,0.2,0.5,0.5V12  c0,0.276,0.224,0.5,0.5,0.5S26,12.276,26,12v-1.5C26,9.7,25.3,9,24.5,9h-17C6.7,9,6,9.7,6,10.5V12C6,12.276,6.224,12.5,6.5,12.5z"  /> <circle class="st0" cx="6.5" cy="14.5" r="0.5"/> <circle class="st0" cx="9.2" cy="14.5" r="0.5"/> <circle class="st0" cx="11.9" cy="14.5" r="0.5"/> <circle class="st0" cx="14.6" cy="14.5" r="0.5"/> <circle class="st0" cx="17.4" cy="14.5" r="0.5"/> <circle class="st0" cx="20.1" cy="14.5" r="0.5"/> <circle class="st0" cx="22.8" cy="14.5" r="0.5"/> <circle class="st0" cx="25.5" cy="14.5" r="0.5"/> <circle class="st0" cx="28.5" cy="17.5" r="0.5"/> <path class="st0" d="M27.5,12H27v1h0.5c0.3,0,0.5,0.2,0.5,0.5V15c0,0.276,0.224,0.5,0.5,0.5S29,15.276,29,15v-1.5  C29,12.7,28.3,12,27.5,12z"/> <path class="st0" d="M28.5,19.5c-0.3,0-0.5,0.2-0.5,0.5v4.5c0,0.3-0.1,0.5-0.3,0.5h-4.8h-7.6h-4.8c-0.3,0-0.5-0.2-0.5-0.5V23h2h8.2  h4.5c0.8,0,1.3-0.7,1.3-1.5V17c0-0.3-0.2-0.5-0.5-0.5S25,16.7,25,17v4.5c0,0.3-0.1,0.5-0.3,0.5h-4.8h-7.6H7.5C7.2,22,7,21.8,7,21.5  V17c0-0.276-0.224-0.5-0.5-0.5S6,16.724,6,17v4.5C6,22.3,6.7,23,7.5,23H9v1.5c0,0.8,0.7,1.5,1.5,1.5H15h8.2h4.5  c0.8,0,1.3-0.7,1.3-1.5V20C29,19.7,28.8,19.5,28.5,19.5z"/></g><style type="text/css">circle, ellipse, line, path, polygon, polyline, rect, text { fill: #9c9ca6; }</style></svg>
