<svg version="1.1" id="Layer_1" xmlns="http://www.w3.org/2000/svg" xmlns:xlink="http://www.w3.org/1999/xlink" x="0px" y="0px"  width="75px" height="75px" viewBox="0 0 75 75" enable-background="new 0 0 75 75" xml:space="preserve">    <title>icon--subscription-route-free</title>    <g>    <path d="M57.583,38.167c-1.687,0-3.08,1.226-3.358,2.834L48,41.003V39h-1v2.002l-7,0.002V39h-1v2.005h-4.287L31.207,37.5        l1.146-1.146l-0.707-0.707L30.5,36.793L26.207,32.5l1.146-1.146l-0.707-0.707L25.5,31.793l-4.18-4.18        c0.42-0.57,0.68-1.267,0.68-2.03c0-1.887-1.53-3.417-3.417-3.417s-3.417,1.53-3.417,3.417S16.696,29,18.583,29        c0.763,0,1.46-0.26,2.03-0.682l13.683,13.651l19.91,0.014C54.408,43.68,55.834,45,57.583,45C59.471,45,61,43.471,61,41.583        S59.471,38.167,57.583,38.167z M16.167,25.583c0-1.333,1.084-2.417,2.417-2.417s2.417,1.084,2.417,2.417S19.917,28,18.584,28        C17.252,28,16.168,26.916,16.167,25.583L16.167,25.583z M57.583,44c-1.333,0-2.417-1.084-2.417-2.417s1.084-2.417,2.417-2.417        S60,40.25,60,41.583S58.916,44,57.583,44z"/>    </g><style type="text/css">circle, ellipse, line, path, polygon, polyline, rect, text { fill: #003082; }</style></svg>
