<svg version="1.1" id="OV_tram_metro_bus" xmlns="http://www.w3.org/2000/svg" xmlns:xlink="http://www.w3.org/1999/xlink" x="0px"  y="0px" width="75px" height="75px" viewBox="0 0 75 75" enable-background="new 0 0 75 75" xml:space="preserve"><g> <circle cx="15" cy="38.25" r="0.75"/> <circle cx="20" cy="38.25" r="0.75"/> <path d="M21,27h-7c-1.104,0-2,0.895-2,2v1v6v4c0,1.105,0.896,2,2,2h7c1.104,0,2-0.895,2-2v-4v-6v-1C23,27.895,22.104,27,21,27z   M22,31v4h-1v-4H22z M20,35h-5v-4h5V35z M14,35h-1v-4h1V35z M22,40c0,0.551-0.448,1-1,1h-7c-0.552,0-1-0.449-1-1v-4h9V40z M13,30  v-1c0-0.551,0.448-1,1-1h7c0.552,0,1,0.449,1,1v1H13z"/> <path d="M13.5,22h1.009c0,0.04-0.005,0.08,0.006,0.121L15.235,25h1.03l-0.75-3h3.97l-0.75,3h1.03l0.72-2.879  c0.01-0.041,0.006-0.081,0.006-0.121H21.5c0.276,0,0.5-0.224,0.5-0.5S21.776,21,21.5,21h-8c-0.276,0-0.5,0.224-0.5,0.5  S13.224,22,13.5,22z"/> <path d="M8.723,47.584c-0.23,0.152-0.292,0.463-0.139,0.693C8.68,48.422,8.839,48.5,9,48.5c0.095,0,0.191-0.027,0.277-0.084l6-4  c0.144-0.096,0.213-0.255,0.214-0.416h-1.392L8.723,47.584z"/> <path d="M16.6,47.7c-0.166,0.221-0.121,0.534,0.1,0.7c0.09,0.066,0.195,0.1,0.299,0.1c0.152,0,0.302-0.068,0.4-0.2l3-4  c0.068-0.09,0.092-0.194,0.092-0.3h-1.116L16.6,47.7z"/> <circle cx="54.5" cy="38.5" r="1"/> <circle cx="60.5" cy="38.5" r="1"/> <path d="M63,26H52c-1.104,0-2,0.895-2,2v12c0,1.105,0.896,2,2,2h11c1.104,0,2-0.895,2-2V28C65,26.895,64.104,26,63,26z M53,27h9v8  h-9V27z M64,40c0,0.551-0.448,1-1,1H52c-0.552,0-1-0.449-1-1V28c0-0.551,0.448-1,1-1v8c0,0.552,0.448,1,1,1h9c0.552,0,1-0.448,1-1  v-8c0.552,0,1,0.449,1,1V40z"/> <path d="M48.5,29c-0.275,0-0.5,0.224-0.5,0.5V32c0,0.276,0.225,0.5,0.5,0.5S49,32.276,49,32v-2.5C49,29.224,48.775,29,48.5,29z"/> <path d="M52.75,45h0.5c0.414,0,0.75-0.336,0.75-0.75V43h-2v1.25C52,44.664,52.336,45,52.75,45z"/> <path d="M61.75,45h0.5c0.414,0,0.75-0.336,0.75-0.75V43h-2v1.25C61,44.664,61.336,45,61.75,45z"/><circle cx="33.5" cy="37.5" r="1"/><circle cx="39.5" cy="37.5" r="1"/><path d="M31,42h11c1.104,0,2-0.895,2-2V28c0-1.105-0.896-2-2-2v-1c0-0.552-0.448-1-1-1h-9c-0.552,0-1,0.448-1,1v1 c-1.104,0-2,0.895-2,2v12C29,41.105,29.896,42,31,42z M32,25h9v1h-9V25z M32,27h4v7h-4V27z M37,27h4v7h-4V27z M30,28 c0-0.551,0.448-1,1-1v7c0,0.552,0.448,1,1,1h9c0.552,0,1-0.448,1-1v-7c0.552,0,1,0.449,1,1v12c0,0.551-0.448,1-1,1H31 c-0.552,0-1-0.449-1-1V28z"/><path d="M30.833,51.061c0.055,0.021,0.111,0.029,0.167,0.029c0.206,0,0.398-0.128,0.471-0.333l2-5.64 c0.014-0.039,0.013-0.078,0.017-0.117h-1.036l-1.923,5.423C30.437,50.684,30.573,50.969,30.833,51.061z"/><path d="M39.529,45.117l2,5.64c0.072,0.205,0.266,0.333,0.471,0.333c0.057,0,0.111-0.009,0.167-0.029 c0.26-0.092,0.396-0.377,0.304-0.638L40.548,45h-1.036C39.516,45.039,39.516,45.078,39.529,45.117z"/>    </g><style type="text/css">circle, ellipse, line, path, polygon, polyline, rect, text { fill: #003082; }</style></svg>
