<?xml version="1.0" encoding="utf-8"?>
<!-- Generator: Adobe Illustrator 22.0.1, SVG Export Plug-In . SVG Version: 6.00 Build 0)  -->
<svg version="1.1" id="Laag_1" xmlns="http://www.w3.org/2000/svg" xmlns:xlink="http://www.w3.org/1999/xlink" x="0px" y="0px"
	 viewBox="0 0 595.3 595.3" style="enable-background:new 0 0 595.3 595.3;" xml:space="preserve">
<style type="text/css">
	.st0{fill:none;stroke:#233974;stroke-width:6;stroke-miterlimit:10;}
	.st1{fill:#233974;}
</style>
<path class="st0" d="M560.9,270.3c0,11.8,0,23.6,0,35.5c-0.3,1.7-0.8,3.3-1,5c-1.3,9.4-2,19-3.9,28.3
	c-13.1,65.2-45.6,118.8-98.1,159.5c-59.4,46.1-127,63.6-201.4,53.8c-43.7-5.7-84-21.6-119.2-48.3C53.5,440.2,17.1,355.3,29.7,250.8
	c7.6-62.8,36.7-115.9,83.1-158.9c38.2-35.4,83.2-57.8,134.6-66.7c9.5-1.7,19.2-2.8,28.7-4.1c11.8,0,23.6,0,35.5,0
	c6.5,0.8,13.1,1.4,19.5,2.4c62.6,9.5,115.8,37,158.9,83.5c35.3,38.1,57.6,82.9,66.6,134.1C558.4,250.8,559.5,260.5,560.9,270.3z"/>
<path class="st0" d="M442.8,366.3c-29.2,45.6-69.7,73.8-123.4,79.6c-70.1,7.6-123.9-20.9-163.7-79.4"/>
<path class="st1" d="M186.3,248.6c-11.1-0.1-19.9-9.1-19.8-20.2c0.1-11.1,9.1-19.9,20.2-19.8c11.1,0.1,19.9,9.1,19.8,20.2
	C206.5,239.8,197.4,248.7,186.3,248.6z"/>
<path class="st1" d="M396.9,208.5c11.1,0,20,9,19.9,20.1c0,11.1-9,20-20.1,19.9c-11.1,0-20-9-19.9-20.1
	C376.8,217.4,385.8,208.5,396.9,208.5z"/>
</svg>
