<?xml version="1.0" encoding="utf-8"?>
<!-- Generator: Adobe Illustrator 22.0.1, SVG Export Plug-In . SVG Version: 6.00 Build 0)  -->
<svg version="1.1" id="Laag_1" xmlns="http://www.w3.org/2000/svg" xmlns:xlink="http://www.w3.org/1999/xlink" x="0px" y="0px"
	 viewBox="0 0 84 84" style="enable-background:new 0 0 84 84;" xml:space="preserve">
<style type="text/css">
	.st0{fill:#003082;}
</style>
<title>time</title>
<g>
	<g>
		<g>
			<path class="st0" d="M42,44.2c-9.7,0-17.7-8.8-17.7-19.9v-4.4C24.3,8.8,32.3,0,42,0s17.7,8.8,17.7,19.9v4.4
				C59.7,35.4,51.7,44.2,42,44.2z M42,4.4c-7.5,0-13.3,7.1-13.3,15.5v4.4c0,8.4,5.7,15.5,13.3,15.5s13.3-7.1,13.3-15.5v-4.4
				C55.2,11.5,49.5,4.4,42,4.4z"/>
		</g>
	</g>
	<g>
		<g>
			<path class="st0" d="M44.2,84H4.4V70.7c0-10.6,8.8-23,19.9-23c1.3,0,2.2,0.9,2.2,2.2c0,1.3-0.9,2.2-2.2,2.2
				c-8.4,0-15.5,10.2-15.5,18.6v8.8h35.4c1.3,0,2.2,0.9,2.2,2.2C46.4,83.1,45.5,84,44.2,84z"/>
		</g>
	</g>
	<g>
		<g>
			<path class="st0" d="M79.6,84H39.8c-1.3,0-2.2-0.9-2.2-2.2c0-1.3,0.9-2.2,2.2-2.2h35.4v-8.8c0-8.4-7.1-18.6-15.5-18.6
				c-1.3,0-2.2-0.9-2.2-2.2c0-1.3,0.9-2.2,2.2-2.2c11.1,0,19.9,12.4,19.9,23V84z"/>
		</g>
	</g>
</g>
</svg>
