<?xml version="1.0" encoding="utf-8"?>
<!-- Generator: Adobe Illustrator 22.0.1, SVG Export Plug-In . SVG Version: 6.00 Build 0)  -->
<svg version="1.1" id="Laag_1" xmlns="http://www.w3.org/2000/svg" xmlns:xlink="http://www.w3.org/1999/xlink" x="0px" y="0px"
	 viewBox="0 0 84 84" style="enable-background:new 0 0 84 84;" xml:space="preserve">
<style type="text/css">
	.st0{fill:#003082;}
</style>
<title>time</title>
<g>
	<path class="st0" d="M81.7,79.9H2.3C0.9,79.9,0,79,0,77.6c0-1.4,0.9-2.3,2.3-2.3h79.3c1.4,0,2.3,0.9,2.3,2.3
		C84,79,83.1,79.9,81.7,79.9z"/>
	<path class="st0" d="M81.7,33.2H2.3c-1.4,0-2.3-0.9-2.3-2.3c0-1.4,0.9-2.3,2.3-2.3h79.3c1.4,0,2.3,0.9,2.3,2.3
		C84,32.3,83.1,33.2,81.7,33.2z"/>
	<path class="st0" d="M81.7,56.6H2.3c-1.4,0-2.3-0.9-2.3-2.3s0.9-2.3,2.3-2.3h79.3c1.4,0,2.3,0.9,2.3,2.3S83.1,56.6,81.7,56.6z"/>
	<path class="st0" d="M81.7,9.9H2.3C0.9,9.9,0,9,0,7.6s0.9-2.3,2.3-2.3h79.3c1.4,0,2.3,0.9,2.3,2.3S83.1,9.9,81.7,9.9z"/>
</g>
</svg>
